<svg width="29" height="12" viewBox="0 0 29 12" fill="none" xmlns="http://www.w3.org/2000/svg">
<rect y="0.895844" width="28.3444" height="11" rx="1" fill="#EE3E61"/>
<path d="M5.55767 3.25207V9.75507H6.49567V3.25207H5.55767ZM6.28567 5.65307V6.41607H7.43367V5.65307H6.28567ZM1.66567 7.42407V8.19407H2.21167C3.33867 8.19407 4.22767 8.16607 5.20767 7.99107L5.11667 7.22107C4.16467 7.38907 3.30367 7.42407 2.21167 7.42407H1.66567ZM1.66567 3.85407V7.79507H2.58967V4.60307H4.68967V3.85407H1.66567ZM12.2981 3.25207V9.75507H13.2361V3.25207H12.2981ZM9.74312 3.70707C8.76312 3.70707 8.04212 4.60307 8.04212 6.01707C8.04212 7.44507 8.76312 8.34107 9.74312 8.34107C10.7231 8.34107 11.4441 7.44507 11.4441 6.01707C11.4441 4.60307 10.7231 3.70707 9.74312 3.70707ZM9.74312 4.55407C10.2261 4.55407 10.5481 5.06507 10.5481 6.01707C10.5481 6.98307 10.2261 7.50107 9.74312 7.50107C9.26012 7.50107 8.93112 6.98307 8.93112 6.01707C8.93112 5.06507 9.26012 4.55407 9.74312 4.55407ZM16.0706 3.70707C15.0976 3.70707 14.3976 4.60307 14.3976 6.01707C14.3976 7.44507 15.0976 8.34107 16.0706 8.34107C17.0366 8.34107 17.7436 7.44507 17.7436 6.01707C17.7436 4.60307 17.0366 3.70707 16.0706 3.70707ZM16.0706 4.55407C16.5466 4.55407 16.8546 5.06507 16.8546 6.01707C16.8546 6.98307 16.5466 7.50107 16.0706 7.50107C15.6016 7.50107 15.2866 6.98307 15.2866 6.01707C15.2866 5.06507 15.6016 4.55407 16.0706 4.55407ZM18.8076 3.25207V9.75507H19.7316V3.25207H18.8076ZM17.4706 5.59007V6.33907H19.1996V5.59007H17.4706ZM25.198 3.25207V9.75507H26.129V3.25207H25.198ZM21.082 7.48707V8.24307H21.656C22.839 8.24307 23.791 8.20807 24.841 8.01907L24.75 7.27007C23.721 7.44507 22.804 7.48707 21.656 7.48707H21.082ZM21.075 3.80507V4.54707H23.182V5.57607H21.082V7.76707H22.027V6.31107H24.134V3.80507H21.075Z" fill="white"/>
</svg>
